<svg aria-hidden="true" style="position:absolute;width:0;height:0;overflow:hidden" xmlns="http://www.w3.org/2000/svg">
  <defs>
    <symbol id="css" viewBox="0 0 32 32">
      <path d="M0 22V1.503C0 .67.675 0 1.503 0H30.5A1.5 1.5 0 0 1 32 1.501v19.765c-.901-.551-1.956-.827-3.163-.827-1.677 0-2.949.395-3.816 1.181-.867.788-1.299 1.777-1.299 2.968 0 1.305.448 2.264 1.344 2.877.529.368 1.485.707 2.868 1.02l1.408.316c.824.18 1.427.387 1.813.621.384.24.576.581.576 1.02 0 .752-.387 1.267-1.163 1.543l-.032.011h-2.964a2.05 2.05 0 0 1-.915-.613l-.002-.003c-.247-.3-.413-.753-.496-1.361h-2.653c0 .747.145 1.404.433 1.977h-2.241a3.921 3.921 0 0 0 .392-1.76c0-1.185-.396-2.091-1.189-2.716-.512-.403-1.269-.724-2.273-.965l-2.292-.549c-.884-.211-1.461-.395-1.732-.551a1.146 1.146 0 0 1-.631-1.023l.001-.045v.002c0-.516.213-.92.64-1.208.427-.289 1-.433 1.715-.433.643 0 1.181.112 1.613.333.651.337 1 .907 1.047 1.707h2.671c-.048-1.413-.567-2.492-1.556-3.235s-2.185-1.115-3.587-1.115c-1.677 0-2.949.395-3.815 1.181-.867.788-1.3 1.777-1.3 2.968 0 1.305.448 2.264 1.344 2.877.529.368 1.485.707 2.869 1.02l1.407.316c.824.18 1.428.387 1.813.621.384.24.577.581.577 1.02 0 .752-.388 1.267-1.164 1.543l-.033.011h-2.964a2.05 2.05 0 0 1-.915-.613l-.002-.003c-.247-.3-.413-.753-.496-1.361h-2.653c0 .747.144 1.404.432 1.977H8.816a6.232 6.232 0 0 0 .885-2.366l.005-.036H6.955c-.187.685-.421 1.2-.704 1.543-.348.435-.804.72-1.368.859H3.228c-.6-.153-1.119-.493-1.553-1.016-.617-.741-.927-1.859-.927-3.349 0-1.492.291-2.645.875-3.46.583-.815 1.38-1.223 2.391-1.223.992 0 1.74.289 2.245.867.283.324.515.805.693 1.443h2.783c-.043-.829-.349-1.656-.92-2.48-1.035-1.467-2.671-2.2-4.907-2.2-1.557 0-2.86.473-3.905 1.423zm32 4.872v-2.083h-.691c-.048-.8-.397-1.368-1.047-1.705-.433-.221-.971-.333-1.613-.333-.716 0-1.288.144-1.715.433-.427.288-.64.691-.64 1.208 0 .476.209.831.631 1.065.271.156.848.34 1.732.551l2.291.549c.387.093.739.199 1.052.315z"/>
    </symbol>
    <symbol id="redux" viewBox="0 0 32 32">
      <path d="M22.179 22.005c1.16-.1 2.057-1.12 2-2.339-.063-1.219-1.061-2.197-2.279-2.197h-.081a2.281 2.281 0 0 0-2.197 2.363v-.004c.04.639.301 1.159.659 1.537-1.397 2.717-3.495 4.715-6.673 6.393-2.137 1.117-4.395 1.539-6.592 1.24-1.837-.26-3.275-1.08-4.155-2.399-1.317-1.999-1.437-4.155-.34-6.312.8-1.56 1.999-2.697 2.799-3.257a12.486 12.486 0 0 1-.547-1.974l-.013-.083C-1.156 19.21-.553 25.002 1.244 27.74c1.339 1.997 4.076 3.275 7.072 3.275.8 0 1.64-.059 2.457-.259 5.196-.999 9.131-4.115 11.388-8.709zm7.13-4.994c-3.093-3.637-7.651-5.635-12.845-5.635h-.68c-.337-.739-1.116-1.199-1.997-1.199h-.06c-1.257 0-2.237 1.08-2.196 2.337.04 1.197 1.059 2.197 2.277 2.197h.099a2.256 2.256 0 0 0 1.993-1.384l.005-.015h.74c3.079 0 5.993.899 8.651 2.656 2.036 1.34 3.496 3.097 4.316 5.196.717 1.717.679 3.396-.06 4.796-1.14 2.196-3.059 3.356-5.595 3.356-1.599 0-3.156-.5-3.956-.859-.48.397-1.28 1.057-1.859 1.457 1.757.797 3.536 1.257 5.253 1.257 3.896 0 6.792-2.196 7.892-4.315 1.197-2.397 1.099-6.432-1.96-9.888zM8.653 22.723a2.3 2.3 0 0 0 2.277 2.197h.08a2.251 2.251 0 0 0 2.197-2.363v.005c0-1.2-1.039-2.196-2.257-2.196h-.08c-.08 0-.2 0-.301.039-1.657-2.797-2.357-5.796-2.096-9.029.16-2.437.96-4.556 2.396-6.313 1.2-1.499 3.457-2.24 4.996-2.277 4.315-.081 6.113 5.295 6.252 7.432l1.997.6c-.46-6.555-4.533-9.991-8.429-9.991-3.659 0-7.032 2.657-8.392 6.553-1.857 5.193-.639 10.189 1.64 14.185-.2.26-.32.719-.28 1.157z"/>
    </symbol>
    <symbol id="yarn" viewBox="0 0 32 32">
      <path d="M16 0C7.167 0 0 7.167 0 16s7.167 16 16 16 16-7.167 16-16S24.833 0 16 0zm1.024 5.473c.244 0 .484.071.7.209.167.111.383.247 1.007 1.539.413-.117.624-.056.735-.025a.982.982 0 0 1 .617.5c.636 1.223.723 3.404.445 4.807-.321 1.643-1.007 2.705-1.508 3.435.432.439 1.037 1.199 1.489 2.433a6.56 6.56 0 0 1 .364 2.687 7.18 7.18 0 0 0 .832-.456l-.03.018c.791-.488 1.983-1.223 3.404-1.241.952-.012 1.692.593 1.804 1.471a1.642 1.642 0 0 1-1.249 1.814l-.011.002c-.865.211-1.267.371-2.428 1.124-1.643 1.063-3.385 1.656-4.016 1.853a2.226 2.226 0 0 1-.924.454l-.015.003c-.983.241-4.355.42-4.621.42h-.061c-1.044 0-1.619-.321-1.933-.655-.877.439-2.013.253-2.829-.179a1.44 1.44 0 0 1-.772-1.546l-.001.009a1.7 1.7 0 0 1-.2-.253l-.004-.007c-.216-.333-.704-1.248-.605-2.595.075-.964.741-1.823 1.173-2.28a7.342 7.342 0 0 1 .562-3.056l-.018.049c.408-.969 1.18-1.797 1.76-2.316-.427-.716-.859-1.823-.439-2.947.303-.803.549-1.248 1.093-1.44h-.007c.265-.099.519-.204.648-.345a4.544 4.544 0 0 1 3.05-1.47l.014-.001c.049-.124.105-.247.167-.377.413-.877.852-1.372 1.365-1.557.13-.05.28-.08.437-.08zm.008.934c-.676.021-1.335 2.025-1.335 2.025s-1.693-.272-3.021 1.161c-.265.291-.624.445-.995.587-.105.037-.235.031-.556.896-.495 1.321.833 2.792.833 2.792s-1.581 1.119-2.168 2.508c-.648 1.525-.451 3.015-.451 3.015s-1.124.976-1.199 1.983c-.068.884.185 1.6.457 2.02.303.457.68.235.68.235s-.748.871-.049 1.241c.636.333 1.711.525 2.28-.049.413-.413.495-1.335.648-1.711.037-.087.16.148.279.265.129.124.352.26.352.26s-1.007.432-.593 1.421c.136.328.624.537 1.421.531.296-.007 3.552-.185 4.417-.395.5-.117.673-.377.673-.377s2.088-.575 3.997-1.809c1.223-.797 1.724-1.013 2.712-1.248.816-.197.76-1.464-.321-1.445-1.119.012-2.1.587-2.928 1.1-1.551.957-2.323.896-2.323.896l-.024-.043c-.105-.173.495-1.724-.179-3.571-.729-2.02-1.884-2.508-1.792-2.663.396-.667 1.384-1.729 1.779-3.707.235-1.199.173-3.169-.359-4.201-.099-.192-.976.321-.976.321s-.821-1.828-1.051-1.977a.362.362 0 0 0-.202-.061h-.008z"/>
    </symbol>
    <symbol id="npm" viewBox="0 0 32 32">
      <path d="M2.351 0A2.345 2.345 0 0 0 0 2.351V29.65a2.345 2.345 0 0 0 2.351 2.351H29.65a2.345 2.345 0 0 0 2.351-2.351V2.351A2.345 2.345 0 0 0 29.65 0zM6.84 7.097l18.449.025-.012 18.448h-4.619l.013-13.843h-4.608l-.011 13.832H6.816z"/>
    </symbol>
    <symbol id="express" viewBox="0 0 32 32">
      <path d="M32 24.784a2.038 2.038 0 0 1-2.521-.949l-.005-.011-4.6-6.361-.667-.889-5.337 7.259a1.957 1.957 0 0 1-2.416.939l.014.004 6.877-9.227-6.397-8.335a2.125 2.125 0 0 1 2.528.879l.005.009 4.768 6.44 4.795-6.413a1.917 1.917 0 0 1 2.397-.886l-.013-.005-2.483 3.295-3.363 4.377a.885.885 0 0 0-.001 1.325l.001.001 6.405 8.549zM.003 15.435l.56-2.767c1.539-5.471 7.811-7.747 12.125-4.36 2.527 1.985 3.157 4.796 3.033 7.964H1.488c-.231 5.657 3.852 9.073 9.072 7.328a5.464 5.464 0 0 0 3.435-3.797l.008-.037c.276-.888.731-1.04 1.565-.784a7.241 7.241 0 0 1-3.42 5.258l-.032.018a8.257 8.257 0 0 1-4.013 1.026 8.332 8.332 0 0 1-5.732-2.274l.004.004A8.722 8.722 0 0 1 .19 17.901l-.002-.031c0-.313-.107-.607-.179-.888C.003 16.541 0 16.02 0 15.498v-.065.003zm1.502-.382h12.872c-.08-4.101-2.668-7.011-6.12-7.037-3.843-.053-6.592 2.792-6.761 7.019z"/>
    </symbol>
    <symbol id="render" viewBox="0 0 32 32">
      <path d="M24.351.009c-4.161-.196-7.659 2.812-8.256 6.776-.024.184-.06.363-.089.54-.928 4.937-5.248 8.676-10.436 8.676-1.851 0-3.588-.475-5.1-1.305a.27.27 0 0 0-.403.235v17.07H16V20.002c0-2.208 1.784-4 3.983-4h3.984c4.509 0 8.137-3.756 7.96-8.325-.16-4.112-3.48-7.471-7.576-7.667z"/>
    </symbol>
    <symbol id="githubactions" viewBox="0 0 32 32">
      <path d="M14.645 18.448a.663.663 0 0 1-.471-.195l-.993-.991a.667.667 0 1 1 .942-.944l.523.521 1.575-1.573a.666.666 0 1 1 .944.942l-2.047 2.044a.674.674 0 0 1-.472.195zm12.471-.196 2.045-2.043a.667.667 0 0 0-.943-.943l-1.574 1.573-.523-.521a.667.667 0 1 0-.942.944l.995.991a.66.66 0 0 0 .941-.001zM6.036 9.936l3.409-2.113a1.334 1.334 0 0 0 .014-2.26l-.005-.003-3.409-2.147a1.333 1.333 0 0 0-2.044 1.128v4.261a1.334 1.334 0 0 0 2.042 1.13l-.006.003zm2.707-3.248L5.334 8.803V4.542l3.409 2.147zM32 16.667a4.672 4.672 0 0 1-4.667 4.667 4.672 4.672 0 0 1-4.61-3.974l-.003-.026h-2.773a4.677 4.677 0 0 1-4.613 4h-.001a4.67 4.67 0 0 1-4.61-3.974l-.003-.026h-.744a4.624 4.624 0 0 1-3.309-1.389v6.723c0 2.205 1.795 4 4 4h.053a4.67 4.67 0 0 1 4.613-4c2.573 0 4.667 2.093 4.667 4.667s-2.093 4.667-4.667 4.667a4.67 4.67 0 0 1-4.61-3.974l-.003-.026h-.053a5.339 5.339 0 0 1-5.333-5.333v-9.468C2.271 12.555.005 9.877.001 6.669.001 2.993 2.992.002 6.668.002s6.667 2.991 6.667 6.667a6.674 6.674 0 0 1-6.599 6.664h-.004a3.314 3.314 0 0 0 3.245 2.669h.744a4.67 4.67 0 0 1 4.613-4 4.67 4.67 0 0 1 4.61 3.974l.003.026h2.773a4.677 4.677 0 0 1 4.613-4A4.672 4.672 0 0 1 32 16.669zM12 27.333c0 1.837 1.496 3.333 3.333 3.333s3.333-1.496 3.333-3.333S17.17 24 15.333 24 12 25.496 12 27.333zM6.667 12C9.608 12 12 9.608 12 6.667S9.608 1.334 6.667 1.334 1.334 3.726 1.334 6.667 3.726 12 6.667 12zm12 4.667c0-1.837-1.496-3.333-3.333-3.333s-3.333 1.496-3.333 3.333S13.497 20 15.334 20s3.333-1.496 3.333-3.333zm12 0c0-1.837-1.496-3.333-3.333-3.333s-3.333 1.496-3.333 3.333S25.497 20 27.334 20s3.333-1.496 3.333-3.333zM13.333 27.333a.667.667 0 1 0 1.334 0 .667.667 0 1 0-1.334 0zm2.667 0a.667.667 0 1 0 1.334 0 .667.667 0 1 0-1.334 0zm16 0A4.672 4.672 0 0 1 27.333 32a4.672 4.672 0 0 1-4.61-3.977l-.003-.026c-.009.001-.017.007-.028.007l-.675.023h-.023a.666.666 0 0 1-.023-1.331h.002l.675-.023c.024-.003.047.008.069.009a4.678 4.678 0 0 1 4.616-4.015A4.672 4.672 0 0 1 32 27.334zm-1.333 0c0-1.837-1.496-3.333-3.333-3.333s-3.333 1.496-3.333 3.333 1.496 3.333 3.333 3.333 3.333-1.496 3.333-3.333z"/>
    </symbol>
    <symbol id="vercel" viewBox="0 0 32 32">
      <path d="M32 30.033H0L16 1.966l16 28.067z"/>
    </symbol>
    <symbol id="netlify" viewBox="0 0 32 32">
      <path d="M8.653 25.387h-.307l-1.507-1.52v-.307l2.307-2.28h1.6l.2.2v1.6l-2.28 2.307zM6.84 8.413v-.28l1.507-1.507h.307l2.28 2.28v1.6l-.2.2h-1.6L6.841 8.413zm13.28 12.12h-2.2l-.187-.173v-5.107c0-.907-.36-1.6-1.467-1.64-.56 0-1.2 0-1.907.027l-.093.107v6.613l-.187.187h-2.213l-.173-.187v-8.72l.173-.187h4.946a3.467 3.467 0 0 1 3.467 3.467v5.44l-.173.187zM8.96 17.28H.187L0 17.093v-2.187l.187-.187H8.96l.187.187v2.187l-.187.187zm22.853 0H23.04l-.187-.187v-2.187l.187-.187h8.773l.187.187v2.187l-.187.187zm-17.08-8.547V2.186l.187-.187h2.2l.187.187v6.533l-.187.187h-2.2l-.187-.173zm0 21.08V23.28l.187-.187h2.2l.187.173v6.547L17.12 30h-2.2l-.187-.187z"/>
    </symbol>
    <symbol id="github" viewBox="0 0 32 32">
      <path d="M16 .396c-8.84 0-16 7.164-16 16 0 7.071 4.584 13.067 10.94 15.18.8.151 1.093-.344 1.093-.769 0-.38-.013-1.387-.02-2.72-4.451.965-5.389-2.147-5.389-2.147-.728-1.847-1.78-2.34-1.78-2.34-1.449-.992.112-.972.112-.972 1.607.112 2.451 1.648 2.451 1.648 1.427 2.447 3.745 1.74 4.66 1.331.144-1.035.556-1.74 1.013-2.14-3.553-.4-7.288-1.776-7.288-7.907 0-1.747.62-3.173 1.647-4.293-.18-.404-.72-2.031.14-4.235 0 0 1.34-.429 4.4 1.64 1.28-.356 2.64-.532 4-.54 1.36.008 2.72.184 4 .54 3.04-2.069 4.38-1.64 4.38-1.64.86 2.204.32 3.831.16 4.235 1.02 1.12 1.64 2.547 1.64 4.293 0 6.147-3.74 7.5-7.3 7.893.56.48 1.08 1.461 1.08 2.96 0 2.141-.02 3.861-.02 4.381 0 .42.28.92 1.1.76C27.42 29.455 32 23.455 32 16.395c0-8.836-7.164-16-16-16z"/>
    </symbol>
    <symbol id="git" viewBox="0 0 32 32">
      <path d="M31.395 14.573 17.423.602a2.065 2.065 0 0 0-2.917 0l-2.895 2.9 3.68 3.68a2.452 2.452 0 0 1 3.103 3.121l3.544 3.547a2.451 2.451 0 0 1 2.533 4.052 2.449 2.449 0 0 1-3.467 0 2.46 2.46 0 0 1-.539-2.661l-3.319-3.301v8.7c.235.115.456.271.651.464a2.463 2.463 0 0 1 0 3.467 2.46 2.46 0 0 1-3.479 0 2.445 2.445 0 0 1 0-3.464c.243-.24.516-.421.807-.541v-8.785a2.433 2.433 0 0 1-.8-.535 2.445 2.445 0 0 1-.528-2.679l-3.616-3.633L.6 14.509c-.8.807-.8 2.112 0 2.919l13.973 13.969a2.061 2.061 0 0 0 2.915 0L31.395 17.49a2.059 2.059 0 0 0 0-2.916z"/>
    </symbol>
    <symbol id="styledcomponents" viewBox="0 0 32 32">
      <path d="m21.619 9.016-.1.521c-.155.988-.099 1.271.325 1.637l.409.339-.424 1.891c-.253 1.128-.564 2.073-.761 2.384-.169.268-.367.663-.409.875-.071.253-.311.508-.677.733-.324.184-.96.677-1.411 1.073-.36.324-.608.523-.743.608l-.44.348c-.141.227-.221.409-.252.548-.031.143-.013.237.032.307.044.067.12.113.224.143a1.254 1.254 0 0 0 .38.031h-.004c.309-.022.596-.075.871-.157l-.028.007c.093-.025.167-.049.231-.071.099-.121.327-.351.731-.749 1.072-1.057 1.481-1.636 1.059-1.48-.156.056-.085-.085.183-.368.565-.551.889-1.383 1.567-3.992.536-2.06.536-2.089.931-2.089.185 0 .709.032.709.032V9.016h-1.203zm5.118 4.22c-.085 0-.227.128-.311.269-.155.253.028.408 2.356 1.861 1.383.876 2.497 1.623 2.469 1.68-.028.041-1.157.776-2.511 1.623-2.456 1.523-2.469 1.537-2.244 1.848.283.367 0 .493 3.188-1.496l2.315-1.481v-1.115l-2.583-1.595c-1.396-.875-2.609-1.58-2.68-1.595zm-21.446.156c-.071 0-1.284.72-2.68 1.58L0 16.567v1.115l2.596 1.623c1.44.888 2.653 1.623 2.709 1.623s.169-.128.283-.283c.169-.268.027-.381-2.357-1.891C.96 17.329.72 17.131.947 16.977c.141-.099 1.213-.763 2.371-1.481 2.639-1.623 2.497-1.511 2.285-1.849-.084-.14-.227-.267-.311-.253zm11.578.031c-.389-.003-1.227.591-3.733 2.637-.108.257-.117.435-.068.549a.33.33 0 0 0 .172.173c.08.04.184.064.299.073.228.02.497-.016.715-.059l.147-.033a.518.518 0 0 1 .189-.156l.003-.001c.155-.085.804-.677 1.453-1.312 1.143-1.157 1.411-1.68.945-1.849a.322.322 0 0 0-.118-.023h-.002zm2.928.804c-.343.009-.96.407-2.017 1.251-.531.431-.867.663-1.047.711l-.699.552c-.263.48-.301.777-.232.941a.337.337 0 0 0 .182.178l.002.001c.093.038.202.06.315.06h.005c.277-.003.542-.044.794-.119l-.021.005c.164-.044.293-.086.42-.133l-.032.01.039-.016.071-.037c.133-.172.44-.496.824-.869 1.213-1.171 1.833-2.003 1.707-2.313-.057-.151-.156-.227-.311-.221zm-3.232 1.44c-.099.011-.32.181-.719.531-.576.509-1.204.803-1.421.672a1.614 1.614 0 0 1-.118.026l-.034.006a2.83 2.83 0 0 1-.744.06.962.962 0 0 1-.342-.086l.006.002a.454.454 0 0 1-.223-.224l-.001-.003c-.049-.12-.049-.269.007-.46l-.867.712-1.961 1.623v2.631l6.427-5.063v-.012c0-.054.008-.106.022-.156l-.001.004c.049-.179.047-.269-.031-.261zm2.766.852c-.097 0-.26.137-.52.413-.353.377-.909.743-1.204.817l-.045.024a2.216 2.216 0 0 1-.126.05l-.02.006c-.08.027-.184.059-.304.091-.24.065-.539.125-.805.119a.985.985 0 0 1-.373-.074l.006.002a.46.46 0 0 1-.244-.237l-.001-.003c-.077-.185-.047-.445.123-.815l-5.669 4.465v1.607h2.491l5.283-4.149c.137-.152.344-.36.623-.62.747-.692.916-.931.916-1.284 0-.275-.031-.413-.128-.413zm1.257 2.6-.452.451c-.253.24-.705.536-1.015.663l-.061.027-.004.007-.013.013c-.012.009-.017.011-.027.015a3.699 3.699 0 0 1-.344.116l-.032.008a3.92 3.92 0 0 1-.854.153l-.013.001a1.378 1.378 0 0 1-.423-.038l.009.002a.487.487 0 0 1-.29-.191l-.001-.001c-.064-.099-.083-.231-.047-.393a1.44 1.44 0 0 1 .131-.341l-.004.008-4.263 3.368h5.669l.677-.776c.931-1.085 1.355-1.861 1.355-2.525z"/>
    </symbol>
    <symbol id="sass" viewBox="0 0 32 32">
      <path d="M16 0c8.836 0 16 7.164 16 16s-7.164 16-16 16S0 24.836 0 16 7.164 0 16 0zm-3.18 21.331c.233.86.208 1.664-.032 2.389l-.087.24c-.032.081-.069.16-.104.235a4.492 4.492 0 0 1-.74 1.08c-.931 1.012-2.229 1.396-2.787 1.073-.6-.349-.301-1.78.779-2.92 1.161-1.224 2.827-2.012 2.827-2.012v-.004l.144-.081zM26.035 6.849c-.723-2.844-5.436-3.779-9.896-2.193-2.652.943-5.525 2.424-7.591 4.356-2.457 2.295-2.848 4.295-2.687 5.131.569 2.948 4.609 4.876 6.271 6.307v.008c-.489.24-4.075 2.039-4.915 3.9-.9 1.96.14 3.361.82 3.54 2.1.581 4.26-.48 5.42-2.199 1.12-1.681 1.021-3.841.539-4.901.661-.18 1.44-.26 2.44-.139 2.801.32 3.361 2.08 3.24 2.8-.12.719-.697 1.139-.899 1.259-.2.121-.26.16-.241.241.02.12.121.12.28.1.22-.04 1.461-.6 1.521-1.961.06-1.72-1.581-3.639-4.5-3.6-1.2.021-1.961.121-2.5.341a.479.479 0 0 0-.14-.14c-1.8-1.94-5.14-3.3-5-5.88.04-.94.38-3.419 6.4-6.419 4.94-2.461 8.881-1.78 9.561-.28.977 2.139-2.101 6.12-7.241 6.699-1.96.22-2.98-.539-3.241-.82-.279-.3-.319-.32-.419-.259-.16.08-.06.34 0 .5.16.4.78 1.1 1.861 1.46.939.3 3.24.479 6-.6 3.099-1.199 5.519-4.54 4.819-7.34l.097.089z"/>
    </symbol>
    <symbol id="nextjs" viewBox="0 0 32 32">
      <path d="M24.887 29.304A15.918 15.918 0 0 1 16 32C7.169 32 0 24.831 0 16S7.169 0 16 0s16 7.169 16 16c0 4.777-2.099 9.068-5.423 12.001L12.292 9.6H9.6v12.795h2.153v-10.06l13.133 16.969zm-4.443-11.377 2.133 2.748V9.6h-2.133v8.327z"/>
    </symbol>
    <symbol id="mongodb" viewBox="0 0 32 32">
      <path d="M22.924 12.74c-1.685-7.44-5.669-9.885-6.097-10.82-.373-.525-.707-1.272-.98-1.92-.048.66-.073.913-.697 1.579-.964.755-5.917 4.909-6.32 13.36-.376 7.883 5.693 12.58 6.517 13.179l.093.067c.122.786.278 2.095.408 3.411l.032.405h.641c.152-1.376.379-2.741.68-4.093a9.268 9.268 0 0 0 1.133-.924 15.087 15.087 0 0 0 4.853-11.101l-.001-.194v.01c.013-1.085-.137-2.216-.263-2.957zm-7.115 10.927s0-11.055.367-11.053c.284 0 .653 14.26.653 14.26-.508-.06-1.02-2.347-1.02-3.207z"/>
    </symbol>
    <symbol id="nodejs" viewBox="0 0 32 32">
      <path d="M15.997 32c-.428 0-.855-.112-1.229-.329l-3.915-2.316c-.584-.327-.299-.443-.107-.511.78-.271.937-.333 1.771-.805.087-.049.201-.031.291.023l3.008 1.785c.109.06.263.06.363 0l11.727-6.768a.37.37 0 0 0 .179-.317V9.229a.38.38 0 0 0-.183-.323L16.181 2.143a.368.368 0 0 0-.361 0L4.101 8.907a.378.378 0 0 0-.185.321v13.533c0 .129.072.252.185.313l3.212 1.856c1.743.872 2.811-.155 2.811-1.187V10.382c0-.189.152-.337.341-.337h1.487a.34.34 0 0 1 .34.337v13.361c0 2.327-1.267 3.66-3.472 3.66-.677 0-1.212 0-2.701-.735l-3.077-1.769a2.475 2.475 0 0 1-1.229-2.139V9.227c0-.879.471-1.7 1.229-2.137L14.769.314a2.567 2.567 0 0 1 2.464 0L28.958 7.09a2.475 2.475 0 0 1 1.232 2.137V22.76c0 .879-.472 1.697-1.232 2.139L17.233 31.67a2.45 2.45 0 0 1-1.233.329zm9.468-13.343c0-2.533-1.712-3.208-5.316-3.684-3.641-.481-4.012-.731-4.012-1.583 0-.704.313-1.644 3.011-1.644 2.409 0 3.297.519 3.663 2.143a.338.338 0 0 0 .329.265h1.521a.34.34 0 0 0 .337-.369c-.236-2.797-2.095-4.101-5.851-4.101-3.344 0-5.339 1.411-5.339 3.777 0 2.567 1.984 3.276 5.193 3.593 3.84.376 4.137.937 4.137 1.692 0 1.311-1.052 1.869-3.523 1.869-3.103 0-3.785-.779-4.015-2.323a.34.34 0 0 0-.337-.287h-1.516a.336.336 0 0 0-.339.337c0 1.976 1.075 4.331 6.207 4.331 3.717.001 5.848-1.461 5.848-4.017z"/>
    </symbol>
    <symbol id="react" viewBox="0 0 32 32">
      <path d="M18.973 16.005a2.98 2.98 0 1 1-5.961 0 2.98 2.98 0 1 1 5.961 0zm3.531-14.253c-1.795 0-4.143 1.28-6.517 3.496-2.373-2.204-4.723-3.469-6.516-3.469-.547 0-1.044.124-1.475.371-1.833 1.057-2.244 4.352-1.297 8.487C2.64 11.89 0 13.894 0 16.006c0 2.12 2.653 4.129 6.724 5.373-.939 4.151-.52 7.451 1.317 8.507.427.249.92.367 1.469.367 1.793 0 4.143-1.28 6.517-3.499 2.373 2.205 4.723 3.471 6.516 3.471.547 0 1.044-.12 1.475-.367 1.832-1.056 2.244-4.351 1.297-8.487 4.044-1.243 6.684-3.251 6.684-5.365 0-2.12-2.653-4.129-6.724-5.376.939-4.147.52-7.449-1.317-8.507a2.9 2.9 0 0 0-1.456-.371zm-.007 1.453v.008c.3 0 .541.059.744.169.888.509 1.273 2.447.973 4.939-.072.613-.189 1.26-.333 1.92a31.252 31.252 0 0 0-4.143-.712 31.823 31.823 0 0 0-2.713-3.263c2.123-1.973 4.116-3.056 5.473-3.06zm-13.026.027c1.349 0 3.352 1.077 5.48 3.04a30.503 30.503 0 0 0-2.693 3.256 30.322 30.322 0 0 0-4.151.717 20.22 20.22 0 0 1-.339-1.893c-.307-2.491.072-4.427.952-4.943.253-.12.533-.169.751-.176zm6.509 4.067a26.552 26.552 0 0 1 1.813 2.085A39.04 39.04 0 0 0 16 9.339c-.613 0-1.22.013-1.813.045a25.456 25.456 0 0 1 1.793-2.087zM16 10.8c.987 0 1.969.045 2.936.124a35.33 35.33 0 0 1 1.577 2.48c.496.853.947 1.72 1.357 2.595a36.091 36.091 0 0 1-1.351 2.6 34.043 34.043 0 0 1-1.573 2.493c-.971.084-1.955.131-2.947.131-.987 0-1.969-.047-2.936-.124a35.563 35.563 0 0 1-1.577-2.48 33.098 33.098 0 0 1-1.357-2.595 33.21 33.21 0 0 1 1.351-2.605 33.993 33.993 0 0 1 1.573-2.491A33.803 33.803 0 0 1 16 10.797zm-4.847.339a34.16 34.16 0 0 0-.939 1.547c-.3.52-.58 1.043-.847 1.565a27.77 27.77 0 0 1-.901-2.596c.853-.2 1.753-.377 2.687-.515zm9.68 0c.927.137 1.82.307 2.675.516-.24.843-.54 1.709-.88 2.577a34.41 34.41 0 0 0-1.793-3.093zm4.084.9a20.2 20.2 0 0 1 1.833.664c2.309.987 3.803 2.277 3.803 3.301-.007 1.024-1.5 2.32-3.809 3.3-.56.24-1.173.456-1.807.657a31.796 31.796 0 0 0-1.467-3.973c.6-1.356 1.08-2.68 1.447-3.952zm-17.86.005c.371 1.28.86 2.609 1.467 3.973a30.805 30.805 0 0 0-1.448 3.952 18.88 18.88 0 0 1-1.827-.667c-2.309-.983-3.803-2.275-3.803-3.299s1.493-2.323 3.803-3.301c.56-.24 1.173-.456 1.808-.659zm15.571 5.707c.353.876.653 1.749.901 2.597-.853.209-1.755.387-2.688.52a34.425 34.425 0 0 0 1.788-3.117zm-13.26.026c.267.523.547 1.044.853 1.567.307.52.62 1.029.94 1.524a29.347 29.347 0 0 1-2.675-.515c.24-.84.541-1.709.88-2.577zm14.525 3.983c.149.657.267 1.291.339 1.897.307 2.491-.072 4.427-.952 4.944-.196.12-.451.171-.751.171-1.349 0-3.352-1.076-5.48-3.04a30.659 30.659 0 0 0 2.693-3.253c1.476-.157 2.872-.4 4.151-.72zm-15.773.013a31.76 31.76 0 0 0 4.143.709 31.578 31.578 0 0 0 2.713 3.261c-2.127 1.977-4.123 3.06-5.48 3.06a1.587 1.587 0 0 1-.737-.176c-.888-.507-1.273-2.445-.973-4.937.072-.613.189-1.259.333-1.917zm6.08.854a39.04 39.04 0 0 0 1.793.045c.613 0 1.22-.013 1.813-.045a25.624 25.624 0 0 1-1.793 2.087 26.964 26.964 0 0 1-1.813-2.087z"/>
    </symbol>
    <symbol id="html" viewBox="0 0 32 32">
      <path d="M2 0h28l-2.547 28.751L15.969 32 4.55 28.749 1.999 0zm9.375 13-.309-3.624 13.412.004.307-3.496L7.217 5.88l.931 10.68h12.168l-.435 4.568-3.88 1.072-3.94-1.08-.251-2.813H8.331l.44 5.561L16 25.801l7.172-1.924.992-10.876H11.375z"/>
    </symbol>
    <symbol id="javascript" viewBox="0 0 32 32">
      <path d="M0 0h32v32H0V0zm29.379 24.368c-.233-1.46-1.184-2.687-4.004-3.831-.981-.46-2.072-.78-2.396-1.52-.121-.44-.14-.68-.061-.94.2-.861 1.22-1.12 2.02-.88.52.16 1 .56 1.301 1.2 1.379-.901 1.379-.901 2.34-1.5-.36-.56-.539-.801-.781-1.04-.84-.94-1.959-1.42-3.779-1.379l-.94.119c-.901.22-1.76.7-2.28 1.34-1.52 1.721-1.081 4.721.759 5.961 1.82 1.36 4.481 1.659 4.821 2.94.32 1.56-1.16 2.06-2.621 1.88-1.081-.24-1.68-.781-2.34-1.781l-2.44 1.401c.28.64.6.919 1.08 1.479 2.32 2.341 8.12 2.221 9.161-1.339.039-.12.32-.94.099-2.2l.061.089zm-11.978-9.66h-2.997c0 2.584-.012 5.152-.012 7.74 0 1.643.084 3.151-.184 3.615-.44.919-1.573.801-2.088.64-.528-.261-.796-.621-1.107-1.14-.084-.14-.147-.261-.169-.261l-2.433 1.5c.407.84 1 1.563 1.765 2.023 1.14.68 2.672.9 4.276.54 1.044-.301 1.944-.921 2.415-1.881.68-1.24.536-2.76.529-4.461.016-2.739 0-5.479 0-8.239l.005-.075z"/>
    </symbol>
    <symbol id="tailwindcss" viewBox="0 0 32 32">
      <path d="M16.001 6.4c-4.267 0-6.933 2.133-8 6.4 1.6-2.133 3.467-2.933 5.6-2.4 1.217.304 2.087 1.187 3.051 2.165C18.221 14.157 20.036 16 24.001 16c4.267 0 6.933-2.133 8-6.4-1.6 2.133-3.467 2.933-5.6 2.4-1.217-.304-2.087-1.187-3.051-2.165C21.782 8.243 19.967 6.4 16.001 6.4zm-8 9.6c-4.267 0-6.933 2.133-8 6.4 1.6-2.133 3.467-2.933 5.6-2.4 1.217.304 2.087 1.187 3.051 2.165 1.569 1.592 3.384 3.435 7.349 3.435 4.267 0 6.933-2.133 8-6.4-1.6 2.133-3.467 2.933-5.6 2.4-1.217-.304-2.087-1.187-3.051-2.165C13.782 17.843 11.967 16 8.001 16z"/>
    </symbol>
    <symbol id="phone" viewBox="0 0 32 32">
      <path d="M22 20c-2 2-2 4-4 4s-4-2-6-4-4-4-4-6 2-2 4-4-4-8-6-8-6 6-6 6c0 4 4.109 12.109 8 16s12 8 16 8c0 0 6-4 6-6s-6-8-8-6z"/>
    </symbol>
    <symbol id="envelop" viewBox="0 0 32 32">
      <path d="M29 4H3C1.35 4 0 5.35 0 7v20c0 1.65 1.35 3 3 3h26c1.65 0 3-1.35 3-3V7c0-1.65-1.35-3-3-3zM12.461 17.199 4 23.789V8.113l8.461 9.086zM5.512 8h20.976L16 15.875 5.512 8zm7.278 9.553L16 21l3.21-3.447L25.79 26H6.211l6.58-8.447zm6.749-.354L28 8.113v15.676l-8.461-6.59z"/>
    </symbol>
    <symbol id="location" viewBox="0 0 32 32">
      <path d="M16 0C10.477 0 6 4.477 6 10c0 10 10 22 10 22s10-12 10-22c0-5.523-4.477-10-10-10zm0 16a6 6 0 1 1 0-12 6 6 0 0 1 0 12z"/>
    </symbol>
    <symbol id="link" viewBox="0 0 32 32">
      <path d="M13.757 19.868a1.62 1.62 0 0 1-1.149-.476c-2.973-2.973-2.973-7.81 0-10.783l6-6C20.048 1.169 21.963.376 24 .376s3.951.793 5.392 2.233c2.973 2.973 2.973 7.81 0 10.783l-2.743 2.743a1.624 1.624 0 1 1-2.298-2.298l2.743-2.743a4.38 4.38 0 0 0 0-6.187c-.826-.826-1.925-1.281-3.094-1.281s-2.267.455-3.094 1.281l-6 6a4.38 4.38 0 0 0 0 6.187 1.624 1.624 0 0 1-1.149 2.774z"/>
      <path d="M8 31.625a7.575 7.575 0 0 1-5.392-2.233c-2.973-2.973-2.973-7.81 0-10.783l2.743-2.743a1.624 1.624 0 1 1 2.298 2.298l-2.743 2.743a4.38 4.38 0 0 0 0 6.187c.826.826 1.925 1.281 3.094 1.281s2.267-.455 3.094-1.281l6-6a4.38 4.38 0 0 0 0-6.187 1.624 1.624 0 1 1 2.298-2.298c2.973 2.973 2.973 7.81 0 10.783l-6 6A7.575 7.575 0 0 1 8 31.625z"/>
    </symbol>
    <symbol id="github" viewBox="0 0 32 32">
      <path d="M16 .395c-8.836 0-16 7.163-16 16 0 7.069 4.585 13.067 10.942 15.182.8.148 1.094-.347 1.094-.77 0-.381-.015-1.642-.022-2.979-4.452.968-5.391-1.888-5.391-1.888-.728-1.849-1.776-2.341-1.776-2.341-1.452-.993.11-.973.11-.973 1.606.113 2.452 1.649 2.452 1.649 1.427 2.446 3.743 1.739 4.656 1.33.143-1.034.558-1.74 1.016-2.14-3.554-.404-7.29-1.777-7.29-7.907 0-1.747.625-3.174 1.649-4.295-.166-.403-.714-2.03.155-4.234 0 0 1.344-.43 4.401 1.64a15.353 15.353 0 0 1 4.005-.539c1.359.006 2.729.184 4.008.539 3.054-2.07 4.395-1.64 4.395-1.64.871 2.204.323 3.831.157 4.234 1.026 1.12 1.647 2.548 1.647 4.295 0 6.145-3.743 7.498-7.306 7.895.574.497 1.085 1.47 1.085 2.963 0 2.141-.019 3.864-.019 4.391 0 .426.288.925 1.099.768C27.421 29.457 32 23.462 32 16.395c0-8.837-7.164-16-16-16z"/>
    </symbol>
    <symbol id="linkedin" viewBox="0 0 32 32">
      <path d="M29 0H3C1.35 0 0 1.35 0 3v26c0 1.65 1.35 3 3 3h26c1.65 0 3-1.35 3-3V3c0-1.65-1.35-3-3-3zM12 26H8V12h4v14zm-2-16c-1.106 0-2-.894-2-2s.894-2 2-2c1.106 0 2 .894 2 2s-.894 2-2 2zm16 16h-4v-8c0-1.106-.894-2-2-2s-2 .894-2 2v8h-4V12h4v2.481C18.825 13.35 20.087 12 21.5 12c2.488 0 4.5 2.238 4.5 5v9z"/>
    </symbol>
  </defs>
</svg>